# xmcd
#
# Track frame offsets:
#	150
#	17312
#	30887
#	46712
#	59890
#	76667
#	84587
#	93355
#	102512
#	113582
#	123887
#	136142
#	148582
#	158437
#	170937
#	184012
#	196037
#	209705
#	223487
#	235712
#
# Disc length: 3318
#
# Revision: 2
# Processed by: cddbd v1.5.1PL0 Copyright (c) Steve Scherf et al.
# Submitted via: CDex 1.51
# Normalized: r1:DSETVAR1
#
DISCID=060cf414
DTITLE=Various Artist - Kings Of Country - Disc 2
DYEAR=2000
DGENRE=Country
TTITLE0=Ray Price - For The Good Times
TTITLE1=Ray Price - Heartaches By The Number
TTITLE2=Ray Price - I Won't Mention It Again
TTITLE3=Ray Price - City Lights
TTITLE4=Ray Price - You're The Best Thing That Ever Happened To Me
TTITLE5=Roger Miller - Dang Me
TTITLE6=Roger Miller - England Swings
TTITLE7=Roger Miller - Chug-A-Lug
TTITLE8=Roger Miller - King Of The Road
TTITLE9=Roger Miller - Engine Engine #9
TTITLE10=Merle Haggard - Okie From Muskogee
TTITLE11=Merle Haggard - The Roots Of My Raising
TTITLE12=Merle Haggard - Mama Tried
TTITLE13=Merle Haggard - If We Make It Through December
TTITLE14=Merle Haggard - The Fightin' Side Of Me
TTITLE15=Glen Campbell - Galveston
TTITLE16=Glen Campbell - Wichita Lineman
TTITLE17=Glen Campbell - Rhinestone Cowboy
TTITLE18=Glen Campbell - By The Time I Get To Phoenix
TTITLE19=Glen Campbell - Southern Nights
EXTD=YEAR: 2000
EXTT0=
EXTT1=
EXTT2=
EXTT3=
EXTT4=
EXTT5=
EXTT6=
EXTT7=
EXTT8=
EXTT9=
EXTT10=
EXTT11=
EXTT12=
EXTT13=
EXTT14=
EXTT15=
EXTT16=
EXTT17=
EXTT18=
EXTT19=
PLAYORDER=
